<svg width="33" height="25" viewBox="0 0 33 25" fill="none" xmlns="http://www.w3.org/2000/svg">
<g clip-path="url(#clip0_195_666)">
<path d="M15.9587 13.9668L23.3299 8.43983C23.464 8.32937 23.6264 8.24021 23.8073 8.17764C23.9882 8.11506 24.1841 8.08034 24.3832 8.07553C24.5824 8.07072 24.7808 8.09591 24.9667 8.14962C25.1526 8.20333 25.3223 8.28446 25.4656 8.38821C25.609 8.49197 25.7232 8.61623 25.8013 8.75365C25.8795 8.89107 25.9201 9.03885 25.9207 9.18825C25.9214 9.33764 25.882 9.48562 25.805 9.62341C25.728 9.7612 25.615 9.88601 25.4725 9.99045L25.4362 10.0177L17.0129 16.335C16.7336 16.5444 16.3547 16.6621 15.9597 16.6621C15.5647 16.6621 15.1859 16.5444 14.9066 16.335L6.48328 10.0192C6.3426 9.91725 6.23006 9.79556 6.1521 9.66103C6.07414 9.52651 6.03228 9.38179 6.02891 9.23513C6.02554 9.08848 6.06073 8.94276 6.13246 8.8063C6.2042 8.66984 6.31108 8.54532 6.447 8.43983C6.58292 8.33434 6.74522 8.24996 6.92464 8.1915C7.10405 8.13305 7.29706 8.10166 7.49265 8.09913C7.68824 8.09661 7.88258 8.12299 8.06457 8.17678C8.24656 8.23057 8.41264 8.31071 8.55333 8.41262L8.58961 8.43983L15.9587 13.9668Z" fill="#4C704D" stroke="#4C704D" stroke-width="0.5"/>
</g>
<defs>
<clipPath id="clip0_195_666">
<rect width="24.1813" height="32.25" fill="white" transform="matrix(0 1 -1 0 32.25 0)"/>
</clipPath>
</defs>
</svg>
